<svg xmlns="http://www.w3.org/2000/svg" viewBox="0 0 395.09592 823.5"><defs><style>.cls-1{fill:#fff;}.cls-2{fill:#00cca5;}</style></defs><title>about_page</title><g id="Content"><path class="cls-1" d="M95.39907,601.6636s6.92124-14.94381,24.53894-12.64477,40.89823,6.32238,42.78585,12.64477-42.78585-1.14952-47.19027,0S89.107,613.7336,95.39907,601.6636Z"/><path class="cls-1" d="M305.74746,601.6636s-6.92125-14.94381-24.53895-12.64477-40.89822,6.32238-42.78583,12.64477,42.78585-1.14952,47.19029,0S312.0395,613.7336,305.74746,601.6636Z"/><path class="cls-1" d="M299.91828,547.13673s-26.26315,14.9903-86.427,22.4622-69.79,13.21954-69.79,13.21954,3.60982-14.36905,12.03275-18.96714c0,0-52.34255,5.17285-63.172-8.04667s11.43113-32.76142,11.43113-32.76142l191.92266-2.87381Z"/><path class="cls-1" d="M162.55022,744.75579a17.42621,17.42621,0,0,1,4.16337-6.99325,30.787,30.787,0,0,1,6.28828-5.16384,47.21168,47.21168,0,0,1,14.60787-5.91176l.09935-.023a8.01927,8.01927,0,1,1,3.63262,15.62174l-.00781.00181a8.45761,8.45761,0,0,1-1.70759.20683c-4.34229.05677-8.68878.10438-13.11147.30108-2.21472.10188-4.438.26058-6.73521.51878A44.20562,44.20562,0,0,0,162.55022,744.75579Z"/><path class="cls-1" d="M213.93653,726.66694a47.07669,47.07669,0,0,1,14.6132,5.90881,30.766,30.766,0,0,1,6.28858,5.172,17.39192,17.39192,0,0,1,4.15524,7.008,44.49576,44.49576,0,0,0-7.23757-1.42689c-2.29807-.25415-4.52036-.41148-6.73493-.51056-4.421-.19579-8.76568-.24178-13.10614-.30406a8.03841,8.03841,0,1,1,1.88158-15.88118Z"/><path class="cls-1" d="M183.69118,804.53285h35.47508a5.25295,5.25295,0,0,1,5.25295,5.25295v8.46125A5.25295,5.25295,0,0,1,219.16626,823.5H183.69119a5.25294,5.25294,0,0,1-5.25294-5.25294v-8.46128A5.25293,5.25293,0,0,1,183.69118,804.53285Z"/><path class="cls-1" d="M168.8726,753.37721c5.41112-.212,10.72445.07875,15.99117.32409,5.26575.27011,10.45531.528,15.62129.53271,5.16527.012,10.34909-.27474,15.61539-.54608,5.26645-.2539,10.58482-.54355,15.99594-.31072a99.70781,99.70781,0,0,1-15.494,4.347,82.03651,82.03651,0,0,1-16.11873,1.681,84.497,84.497,0,0,1-16.11481-1.68094A98.17608,98.17608,0,0,1,168.8726,753.37721Z"/><circle class="cls-1" cx="144.73258" cy="639.74287" r="8.04667"/><circle class="cls-1" cx="257.38591" cy="639.74287" r="8.04667"/><path class="cls-2" d="M76.7054,625.35083v13.21952h7.67874V680.413a15.2783,15.2783,0,0,0,15.24493,15.31162l.02078,0,60.32136-.12071a24.32637,24.32637,0,0,0,24.094-21.67424l3.94854-35.35936h25.23213l3.94853,35.35936A24.325,24.325,0,0,0,241.28274,695.604l60.327.12071a15.27822,15.27822,0,0,0,15.26561-15.29077l0-.02089V638.57035h8.702V625.35083Zm98.18044,18.44005L171.6883,670.1491c-1.068,8.80472-9.106,15.46668-18.68159,15.48362l-46.77812.08286c-6.535.01158-11.83917-4.88693-11.83917-10.93356v-31.8331a7.41676,7.41676,0,0,1,7.55779-7.26718h65.43165A7.37723,7.37723,0,0,1,174.88584,643.79088ZM306.86962,674.782c0,6.04665-5.30435,10.94514-11.83931,10.93356l-46.77813-.08286c-9.57563-.01694-17.61346-6.6789-18.68159-15.48362l-3.19754-26.35824a7.37732,7.37732,0,0,1,7.507-8.10915H299.3117a7.41679,7.41679,0,0,1,7.55792,7.26718Z"/><path class="cls-1" d="M52.42577,548.90175c4.82612.28356,11.63893.82376,11.23495,7.23928-.26549,4.21667-1.4661,8.43852-1.811,12.686-.36035,4.43739-.45759,8.89214-.45759,13.34269V625.9256h1.703a13.8149,13.8149,0,0,1,13.81717,13.81263V609.338a77.67391,77.67391,0,0,1,77.67339-77.67333h93.51948a77.67871,77.67871,0,0,1,77.679,77.67333v30.40489a13.8139,13.8139,0,0,1,13.81056-13.81726h.55693V572.12215a90.46478,90.46478,0,0,0-90.46186-90.46179H183.05922l-.44917.00024c-29.86629.01933-59.68066,2.83677-89.55425,3.2644-3.213.046-6.43169.09195-9.64466.069-.87365-.01151-7.081.115-7.27069-.18968C79.589,490.91976,92.61883,502.07016,86.4,509.657c-4.24182,5.17285-10.70213,7.79377-16.00144,11.67341C61.875,527.56659,53.20749,535.84889,50.575,546.43027,50.06934,548.47643,50.36233,548.781,52.42577,548.90175Z"/><path class="cls-1" d="M325.78415,672.48131v32.28194a33.90225,33.90225,0,0,0,14.36749-27.72407v-4.55787Z"/><path class="cls-1" d="M76.91223,707.21416V672.48131H61.39212v12.93213a25.57945,25.57945,0,0,0,15.542,23.53179C76.92486,708.36863,76.91223,707.79292,76.91223,707.21416Z"/><path class="cls-1" d="M248.10512,531.66464a77.67871,77.67871,0,0,1,77.679,77.67334v30.4049a13.8139,13.8139,0,0,1,13.81056-13.81728H353.4245A18.91581,18.91581,0,0,1,372.33987,644.841v2.47147a25.16841,25.16841,0,0,1-25.168,25.16883H325.78415v34.73285A106.66033,106.66033,0,0,1,219.12567,813.87274H183.57084A106.65674,106.65674,0,0,1,76.91224,707.21416V672.48131H55.51975a25.16365,25.16365,0,0,1-25.16323-25.16407V644.841A18.91235,18.91235,0,0,1,49.26581,625.9256H63.09508a13.81491,13.81491,0,0,1,13.81717,13.81264V609.338a77.67391,77.67391,0,0,1,77.67339-77.67333h93.51948m0-6.89714H154.58563A84.571,84.571,0,0,0,70.01509,609.338v10.87908a20.62682,20.62682,0,0,0-6.92-1.1886H49.272A25.84178,25.84178,0,0,0,23.45938,644.841v2.47147a32.09952,32.09952,0,0,0,32.06037,32.066H70.01509v27.83571a113.46571,113.46571,0,0,0,113.3756,113.55572q.09007.00006.18014,0h35.55484a113.46813,113.46813,0,0,0,113.55562-113.3806q0-.08753,0-.1751V679.37845h14.48985a32.1023,32.1023,0,0,0,32.06587-32.066V644.841a25.84176,25.84176,0,0,0-25.81251-25.81256H339.59581a20.61661,20.61661,0,0,0-6.91454,1.1873V609.338a84.57585,84.57585,0,0,0-84.57615-84.57048Z"/><path class="cls-1" d="M197.548,18.99993a178.55516,178.55516,0,0,1,143.3186,285.04285,178.96272,178.96272,0,0,1-89.45508,63.783,18.99971,18.99971,0,0,0-8.21557,5.20849l-44.293,47.84131a5.50362,5.50362,0,0,1-8.10035-.02576L145.035,370.78289a19.00035,19.00035,0,0,0-7.62427-5.07044A178.57334,178.57334,0,0,1,197.548,18.99993m0-19C88.4503-.00007,0,88.43816,0,197.5479A197.63276,197.63276,0,0,0,131.01134,383.60235l45.76757,50.06689a24.50365,24.50365,0,0,0,36.06617.11426l44.293-47.84131C337.11,360.66363,395.09581,285.87762,395.09581,197.5479c0-109.10974-88.4502-197.548-197.54785-197.548Z"/><rect class="cls-2" x="174.97797" y="165.9399" width="41.48493" height="148.12018"/><circle class="cls-2" cx="195.72052" cy="113.91469" r="24.13743"/></g></svg>