<svg xmlns="http://www.w3.org/2000/svg" viewBox="0 0 1122 1080"><defs><style>.cls-1{fill:#fff;}.cls-2{fill:#00cca5;}</style></defs><title>face</title><g id="Layer_2" data-name="Layer 2"><path class="cls-1" d="M256.91359,437.34668s19.85918-46.93989,70.40984-39.71837,117.34972,19.85919,122.76586,39.71837-122.76586-3.61076-135.40353,0S238.85979,475.25967,256.91359,437.34668Z"/><path class="cls-1" d="M860.46841,437.34668s-19.85918-46.93989-70.40983-39.71837S672.70885,417.4875,667.29271,437.34668s122.76587-3.61076,135.40353,0S878.52222,475.25967,860.46841,437.34668Z"/><path class="cls-1" d="M870.74293,207.91736s-82.495,47.0859-271.47521,70.55584S380.05067,319.997,380.05067,319.997s11.33881-45.13451,37.796-59.57755c0,0-164.41279,16.24842-198.42923-25.27533s35.90625-102.90668,35.90625-102.90668l602.84689-9.0269Z"/><path class="cls-1" d="M439.25707,857.549c2.24527-8.26214,7.28676-15.6378,13.07755-21.96641a96.70568,96.70568,0,0,1,19.75208-16.2201c14.3139-9.03269,29.99946-14.8837,45.8847-18.56939l.31206-.07234a25.18926,25.18926,0,1,1,11.38588,49.075,26.5651,26.5651,0,0,1-5.36369.64963c-13.63952.17832-27.29227.32788-41.18435.94575-6.95663.32-13.94013.8185-21.15593,1.62949A138.85446,138.85446,0,0,0,439.25707,857.549Z"/><path class="cls-1" d="M600.66628,800.73026c15.891,3.66839,31.58182,9.52453,45.90145,18.56011a96.63864,96.63864,0,0,1,19.753,16.24586c5.789,6.33952,10.8239,13.73324,13.052,22.01274a139.772,139.772,0,0,0-22.73387-4.482c-7.21843-.79828-14.19885-1.29249-21.155-1.6037-13.8868-.615-27.53382-.75944-41.16761-.95506a25.24939,25.24939,0,1,1,5.91024-49.88429Z"/><rect class="cls-1" x="489.16288" y="1016.42245" width="144.43043" height="59.57755" rx="16.49998"/><path class="cls-1" d="M459.11626,884.62968c16.99684-.666,33.68648.24738,50.22977,1.018,16.54021.84847,32.84109,1.65849,49.06791,1.67326,16.22463.03779,32.50743-.863,49.0494-1.71525,16.54242-.79756,33.24792-1.70731,50.24476-.976A313.18721,313.18721,0,0,1,609.04,898.28419a257.6833,257.6833,0,0,1-50.63043,5.28027,265.416,265.416,0,0,1-50.61809-5.27994A308.38427,308.38427,0,0,1,459.11626,884.62968Z"/><circle class="cls-1" cx="383.29022" cy="545.6695" r="25.27533"/><circle class="cls-1" cx="737.14478" cy="545.6695" r="25.27533"/><path class="cls-2" d="M169.61055,453.5951v41.52375h24.11964V626.55052a47.9906,47.9906,0,0,0,47.951,48.09536l189.475-.37916a76.41143,76.41143,0,0,0,75.68141-68.08083l12.40273-111.067h79.25647l12.40273,111.067a76.40724,76.40724,0,0,0,75.66378,68.08083l189.49265.37916a47.99022,47.99022,0,0,0,47.95057-48.09536V495.11885h27.33371V453.5951ZM478.00443,511.517l-10.04375,82.79361c-3.35467,27.65646-28.60267,48.5823-58.68059,48.63552l-146.93443.26028c-20.52694.03636-37.18793-15.35025-37.18793-34.34333V508.87232c0-12.60692,10.62865-22.82687,23.7397-22.82687H454.4243C468.6258,486.04545,479.64982,497.954,478.00443,511.517Zm414.57326,97.34608c0,18.99308-16.66142,34.37969-37.18836,34.34333l-146.93443-.26028c-30.07792-.05322-55.32548-20.97906-58.6806-48.63552L639.73055,511.517c-1.64538-13.56306,9.37908-25.47158,23.58014-25.47158H868.83756c13.11149,0,23.74013,10.21995,23.74013,22.82687Z"/><path class="cls-1" d="M93.346,213.46144c15.15929.89068,36.55895,2.58752,35.29,22.73926-.83393,13.24493-4.60513,26.50617-5.68854,39.848-1.13189,13.93825-1.43734,27.93105-1.43734,41.91063V455.40048h5.34915a43.39389,43.39389,0,0,1,43.401,43.40131V403.29723c0-134.73555,109.22552-243.97913,243.97936-243.97913H707.993c134.75384,0,243.997,109.24358,243.997,243.97913v95.50456a43.39079,43.39079,0,0,1,43.38378-43.40131h1.74588V286.39885C997.11962,129.4751,869.89452,2.25,712.97055,2.25H503.67777q-.70545.00033-1.41089.00077c-93.81279.06072-187.46249,8.91054-281.29819,10.25378-10.09224.14446-20.20254.28881-30.29478.21663-2.74421-.03614-22.242.3611-22.83789-.5958,10.83229,19.20927,51.76012,54.2337,32.22622,78.06463-13.32394,16.24842-33.61639,24.48095-50.262,36.66727-26.77349,19.58844-53.99877,45.60393-62.26755,78.841C85.94422,212.12547,86.86454,213.08227,93.346,213.46144Z"/><path class="cls-1" d="M951.99,601.6363V703.03688A106.49011,106.49011,0,0,0,997.11962,615.953V601.6363Z"/><path class="cls-1" d="M170.26024,710.73542V601.6363H121.51012v40.62106A80.34737,80.34737,0,0,0,170.329,716.17283C170.29991,714.36172,170.26024,712.55336,170.26024,710.73542Z"/><path class="cls-1" d="M707.993,159.3181c134.75384,0,243.997,109.24358,243.997,243.97913v95.50461a43.3908,43.3908,0,0,1,43.38378-43.40136h43.43712a59.41636,59.41636,0,0,1,59.41491,59.41508v7.76311a79.05631,79.05631,0,0,1-79.05723,79.05763H951.99V710.73542c0,185.03342-150.00878,335.02446-335.02413,335.02446h-111.681c-185.03342,0-335.02457-149.991-335.02457-335.02446V601.6363H103.06448a79.04136,79.04136,0,0,1-79.04005-79.05763v-7.76311a59.40545,59.40545,0,0,1,59.41535-59.41508h43.41949a43.3939,43.3939,0,0,1,43.401,43.40136V403.29723c0-134.73555,109.22552-243.97913,243.97936-243.97913H707.993m0-21.66457H414.2396a265.64529,265.64529,0,0,0-265.64392,265.6437v34.1722a64.79083,64.79083,0,0,0-21.73641-3.73351H83.43978A81.17146,81.17146,0,0,0,2.35986,514.81556v7.76311A100.82755,100.82755,0,0,0,103.06448,623.30086h45.5312v87.43456a356.40626,356.40626,0,0,0,356.68913,356.689h111.681a356.41394,356.41394,0,0,0,356.68869-356.689V623.30086h45.514a100.8363,100.8363,0,0,0,100.7218-100.72219v-7.76311a81.17137,81.17137,0,0,0-81.07948-81.07964H995.37374a64.75818,64.75818,0,0,0-21.71922,3.72944V403.29723A265.66054,265.66054,0,0,0,707.993,137.65353Z"/></g></svg>