<svg xmlns="http://www.w3.org/2000/svg" xmlns:xlink="http://www.w3.org/1999/xlink" viewBox="0 0 600 596"><defs><style>.cls-1{fill:none;}.cls-2{fill:#202121;}.cls-3{fill:#f7c87c;}.cls-4{clip-path:url(#clip-path);}.cls-5{fill:#f7b27c;}.cls-6{fill:#f7b37c;}.cls-7{fill:#f7b47c;}.cls-8{fill:#f7b57c;}.cls-9{fill:#f7b67c;}.cls-10{fill:#f7b87c;}.cls-11{fill:#f7ba7c;}.cls-12{fill:#f7bc7c;}.cls-13{fill:#f7bf7c;}.cls-14{fill:#f7c37c;}.cls-15{opacity:0.83;}.cls-16{fill:#b27c5d;}.cls-17{fill:#333;}.cls-18{opacity:0.65;}.cls-19{fill:#fff;}</style><clipPath id="clip-path"><path class="cls-1" d="M324.99762,416H269.71667c-14.71385,0-25.412-13.60562-21.573-27.436L263.56688,333H331.1474l15.42325,55.564C350.40962,402.39438,339.71147,416,324.99762,416Z"/></clipPath></defs><title>face</title><g id="Layer_2" data-name="Layer 2"><path class="cls-2" d="M540.35714,158.64V341.18a59.07442,59.07442,0,0,1-59.07007,59.07H99.85714a44.49576,44.49576,0,0,1-44.5-44.5V176.12135c0-7.74331.16926-15.49387.79625-23.21429.60015-7.39,2.68875-14.7354,3.1508-22.07177.703-11.16207-11.1504-12.10192-19.547-12.5953-3.59-.21-4.1-.74-3.22-4.3,4.58-18.41,19.66-32.82,34.49-43.67,9.22-6.75,20.46-11.31,27.84-20.31,10.82-13.19995-11.85-32.6-17.85-43.24.33.53,11.13.31,12.65.33,5.59.04,11.19-.04,16.78-.12,51.97554-.744,103.84838-5.64591,155.81115-5.67956l.78147-.00043H382.96713A157.39521,157.39521,0,0,1,540.35714,158.64Z"/><path class="cls-3" d="M217.5,88.25H380.21429A135.14286,135.14286,0,0,1,515.35714,223.39286V393.67857A185.57143,185.57143,0,0,1,329.78571,579.25H267.92857A185.57143,185.57143,0,0,1,82.35714,393.67857V223.39286A135.14286,135.14286,0,0,1,217.5,88.25Z"/><g class="cls-4"><rect class="cls-5" x="244.30466" y="412.83013" width="106.10496" height="3.16987"/><rect class="cls-5" x="244.30466" y="409.66026" width="106.10496" height="3.16987"/><rect class="cls-5" x="244.30466" y="406.49039" width="106.10496" height="3.16987"/><rect class="cls-5" x="244.30466" y="403.32052" width="106.10496" height="3.16987"/><rect class="cls-5" x="244.30466" y="400.15066" width="106.10496" height="3.16987"/><rect class="cls-5" x="244.30466" y="396.98079" width="106.10496" height="3.16987"/><rect class="cls-5" x="244.30466" y="393.81092" width="106.10496" height="3.16987"/><rect class="cls-5" x="244.30466" y="390.64105" width="106.10496" height="3.16987"/><rect class="cls-5" x="244.30466" y="387.47118" width="106.10496" height="3.16987"/><rect class="cls-5" x="244.30466" y="384.30131" width="106.10496" height="3.16987"/><rect class="cls-6" x="244.30466" y="381.13144" width="106.10496" height="3.16987"/><rect class="cls-6" x="244.30466" y="377.96157" width="106.10496" height="3.16987"/><rect class="cls-6" x="244.30466" y="374.79171" width="106.10496" height="3.16987"/><rect class="cls-7" x="244.30466" y="371.62184" width="106.10496" height="3.16987"/><rect class="cls-8" x="244.30466" y="368.45197" width="106.10496" height="3.16987"/><rect class="cls-9" x="244.30466" y="365.2821" width="106.10496" height="3.16987"/><rect class="cls-10" x="244.30466" y="362.11223" width="106.10496" height="3.16987"/><rect class="cls-11" x="244.30466" y="358.94236" width="106.10496" height="3.16987"/><rect class="cls-12" x="244.30466" y="355.77249" width="106.10496" height="3.16987"/><rect class="cls-13" x="244.30466" y="352.60262" width="106.10496" height="3.16987"/><rect class="cls-14" x="244.30466" y="349.43276" width="106.10496" height="3.16987"/><rect class="cls-3" x="244.30466" y="346.26289" width="106.10496" height="3.16987"/><rect class="cls-3" x="244.30466" y="333" width="106.10496" height="13.26289"/></g><path class="cls-2" d="M130.35714,242.25s11-26,39-22,65,11,68,22-68-2-75,0S120.35714,263.25,130.35714,242.25Z"/><path class="cls-2" d="M464.66609,242.25s-11-26-39-22-65,11-68,22,68-2,75,0S474.66609,263.25,464.66609,242.25Z"/><path class="cls-2" d="M470.35714,115.16913S424.66318,141.25,319.98706,154.25s-121.4243,23-121.4243,23,6.28056-25,20.93522-33c0,0-91.06822,9-109.90993-14s19.88847-57,19.88847-57l333.91682-5Z"/><g class="cls-15"><path class="cls-2" d="M231.35693,475a30.32021,30.32021,0,0,1,7.24414-12.16721,53.54633,53.54633,0,0,1,10.94043-8.98431A82.14048,82.14048,0,0,1,274.957,443.5629l.17285-.04a13.95231,13.95231,0,1,1,6.30664,27.18261,14.71882,14.71882,0,0,1-2.97119.35987c-7.55469.09875-15.11719.18161-22.812.52383-3.853.17722-7.72119.45337-11.71777.90259A76.91374,76.91374,0,0,0,231.35693,475Z"/><path class="cls-2" d="M320.76172,443.52814a81.90861,81.90861,0,0,1,25.4248,10.28042,53.52,53.52,0,0,1,10.94092,8.99857A30.2509,30.2509,0,0,1,364.35693,475a77.40438,77.40438,0,0,0-12.59228-2.48257c-3.99805-.44217-7.86475-.71592-11.71777-.88831-7.69141-.34067-15.251-.42065-22.80274-.529a13.98563,13.98563,0,1,1,3.27393-27.63089Z"/></g><rect class="cls-2" x="259" y="563" width="80" height="33" rx="16.49998"/><path class="cls-16" d="M242.35693,490c9.41455-.36887,18.65918.137,27.82276.56381,9.16113.47,18.19043.91867,27.17871.92685,8.98633.02091,18.00586-.478,27.168-.95,9.16308-.44183,18.416-.94571,27.83056-.54062a173.47441,173.47441,0,0,1-26.957,7.56326,142.73583,142.73583,0,0,1-28.04443,2.92469,147.01649,147.01649,0,0,1-28.03711-2.92453A170.82862,170.82862,0,0,1,242.35693,490Z"/><circle class="cls-2" cx="200.35714" cy="302.25" r="14"/><circle class="cls-2" cx="396.35714" cy="302.25" r="14"/><path class="cls-17" d="M55.35986,251.25v23h40v72.8a26.582,26.582,0,0,0,26.56006,26.64l104.9502-.21A42.32428,42.32428,0,0,0,268.79,335.77l6.86987-61.52h43.90015l6.86987,61.52a42.322,42.322,0,0,0,41.91016,37.71l104.96.21a26.58178,26.58178,0,0,0,26.55981-26.64v-72.8h40.5v-23ZM252.81934,283.333l-5.56324,45.85937c-1.85815,15.31891-15.843,26.90973-32.50317,26.93921l-81.387.14417c-11.36988.02014-20.59839-8.50251-20.59839-19.02277V281.868a12.90406,12.90406,0,0,1,13.14941-12.6438H239.7583C247.62451,269.22424,253.73071,275.82037,252.81934,283.333Zm229.63208,53.92c0,10.52026-9.22876,19.04291-20.59864,19.02277l-81.387-.14417c-16.66016-.02948-30.64478-11.6203-32.50317-26.93921L342.39941,283.333c-.91137-7.51258,5.19507-14.10871,13.061-14.10871H469.30176a12.90412,12.90412,0,0,1,13.14966,12.6438Z"/><g class="cls-18"><path class="cls-19" d="M214.753,356.13153l-81.387.14418c-11.36989.02014-20.59857-8.50255-20.59857-19.02278V281.868A12.90411,12.90411,0,0,1,125.917,269.22425H239.75841c7.866,0,13.97234,6.59615,13.061,14.10869l-5.56322,45.85938C245.39783,344.51126,231.41315,356.102,214.753,356.13153Z"/></g><g class="cls-18"><path class="cls-19" d="M380.46585,356.13153l81.387.14418c11.36989.02014,20.59857-8.50255,20.59857-19.02278V281.868a12.90411,12.90411,0,0,0-13.14954-12.64379H355.46046c-7.866,0-13.97233,6.59615-13.061,14.10869l5.56322,45.85938C349.821,344.51126,363.80572,356.102,380.46585,356.13153Z"/></g><path class="cls-3" d="M34.26786,252.25H58.32143a24.03571,24.03571,0,0,1,24.03571,24.03571V333.25a0,0,0,0,1,0,0H45.14286A43.78571,43.78571,0,0,1,1.35714,289.46429v-4.30357A32.91071,32.91071,0,0,1,34.26786,252.25Z"/><path class="cls-3" d="M559.14286,252.25h37.21429a0,0,0,0,1,0,0v56.96429A24.03571,24.03571,0,0,1,572.32143,333.25H548.26786a32.91071,32.91071,0,0,1-32.91071-32.91071v-4.30357A43.78571,43.78571,0,0,1,559.14286,252.25Z" transform="translate(1111.71429 585.5) rotate(-180)"/></g></svg>