<svg id="Layer_1" data-name="Layer 1" xmlns="http://www.w3.org/2000/svg" viewBox="0 0 1920 517"><defs><style>.cls-1{fill:#00cca5;}.cls-2{fill:#f7f7f7;}</style></defs><title>Logo_niaggar</title><path class="cls-1" d="M47.39786,11.37612a19.69941,19.69941,0,0,1,6.02039,1.68126,20.27056,20.27056,0,0,1,5.18126,3.64048A59.11572,59.11572,0,0,1,64.2,22.99694L276.74948,293.79563q-1.1216-9.79985-1.54-19.18275-.42032-9.37839-.41994-17.50149V10.95618h66.36924V415.89363H302.23358q-8.966,0-14.84212-2.8006-5.881-2.79608-11.48186-10.08156L64.2,133.33363q.84064,8.966,1.26058,17.78245.41917,8.821.41993,16.10119V415.89363H-.48877V10.95618H38.99682A69.77615,69.77615,0,0,1,47.39786,11.37612Z"/><path class="cls-1" d="M795.93827,415.89363H764.85372q-9.8055,0-15.40179-2.94109-5.60572-2.94108-8.401-11.90179L734.89,380.60818a236.34188,236.34188,0,0,1-21.42293,17.222A130.17578,130.17578,0,0,1,691.764,410.29243a110.769,110.769,0,0,1-23.80359,7.56041,143.14206,143.14206,0,0,1-28.00373,2.52114,110.04981,110.04981,0,0,1-33.60493-4.9154A72.33762,72.33762,0,0,1,579.888,400.70936a66.91681,66.91681,0,0,1-17.222-24.44709q-6.16313-14.61025-6.16086-33.99693a67.22188,67.22188,0,0,1,8.54077-32.17518q8.53889-15.87006,28.42443-28.65554,19.8795-12.784,52.92741-21.213,33.0396-8.42673,82.05123-8.432v-16.929q0-29.06189-12.182-43.03317-12.18126-13.96674-35.42442-13.96825-16.80246,0-28.00449,3.91993a108.78278,108.78278,0,0,0-19.46221,8.82174q-8.26357,4.90332-15.26281,8.82174a30.96114,30.96114,0,0,1-15.40179,3.92144,20.00812,20.00812,0,0,1-12.04152-3.64048,28.62234,28.62234,0,0,1-8.12159-8.96222l-12.60119-22.12232q49.56677-45.367,119.5761-45.367,25.20426,0,44.94631,8.26132a95.54751,95.54751,0,0,1,33.4652,22.96371,98.32438,98.32438,0,0,1,20.86251,35.145,135.04882,135.04882,0,0,1,7.14123,44.80507Zm-134.419-43.12683a93.15953,93.15953,0,0,0,19.60269-1.93051,74.98167,74.98167,0,0,0,16.94257-5.78851,90.32364,90.32364,0,0,0,15.40254-9.50754,139.50921,139.50921,0,0,0,14.98185-13.37158V294.07508q-30.24466,0-50.5475,3.80664-20.30662,3.80664-32.62458,9.73262-12.32513,5.92521-17.50224,13.82324a30.69767,30.69767,0,0,0-5.1805,17.19937q0,18.33984,10.7817,26.23259Q644.15224,372.77058,661.51929,372.7668Z"/><path class="cls-1" d="M1253.23364,123.53153a152.84368,152.84368,0,0,1,34.725,3.781,118.46636,118.46636,0,0,1,29.68424,11.06191h82.61166v25.76431q0,6.4441-3.361,10.08005-3.36027,3.6435-11.48186,5.04078l-25.7628,4.76132a89.41555,89.41555,0,0,1,4.33987,15.40179,91.80262,91.80262,0,0,1,1.54078,17.08154q0,21.28547-8.54077,38.506a86.35576,86.35576,0,0,1-23.52413,29.2643,109.10162,109.10162,0,0,1-35.5649,18.62233,145.86433,145.86433,0,0,1-44.6661,6.58005,160.78022,160.78022,0,0,1-31.645-3.07854q-13.44108,8.18427-13.44107,18.33229,0,8.75075,7.98035,12.83986,7.98261,4.08761,21.003,5.77945a231.114,231.114,0,0,0,29.54527,1.69335q16.52037,0,33.88363,1.40332A266.0906,266.0906,0,0,1,1334.445,351.365a99.276,99.276,0,0,1,29.54376,11.09666,59.26593,59.26593,0,0,1,21.003,20.65254q7.98261,13.06268,7.98186,33.571a79.24948,79.24948,0,0,1-9.38216,37.08755q-9.38518,17.97732-27.1631,32.03017-17.787,14.03925-43.54676,22.61628-25.76733,8.56494-58.80807,8.568-32.7643,0-56.84734-6.30211-24.08833-6.29908-39.90629-16.80058-15.82474-10.50451-23.6631-24.22352a56.8016,56.8016,0,0,1-7.84138-28.56491q0-20.1616,12.32173-33.88515,12.31947-13.7175,34.1646-21.84287a47.59,47.59,0,0,1-17.08154-15.68124q-6.44637-9.79983-6.44108-25.48486a42.66727,42.66727,0,0,1,2.24018-13.30058,53.134,53.134,0,0,1,6.861-13.58155,66.95629,66.95629,0,0,1,11.62234-12.74318,80.23455,80.23455,0,0,1,16.52113-10.78095q-21.84288-11.76207-34.30358-31.364Q1139.25573,242.832,1139.258,216.5042q0-21.2764,8.54077-38.50447a86.233,86.233,0,0,1,23.80359-29.40479,108.57919,108.57919,0,0,1,36.12532-18.62233A153.62786,153.62786,0,0,1,1253.23364,123.53153Zm75.89113,304.42552q0-8.57853-5.04078-14.006a33.069,33.069,0,0,0-13.722-8.438,99.77588,99.77588,0,0,0-20.30359-4.432,202.03456,202.03456,0,0,0-24.64347-1.43051h-26.88364a114.38524,114.38524,0,0,1-26.74316-3.08006,62.57079,62.57079,0,0,0-18.9033,15.26282,31.33991,31.33991,0,0,0-7.14047,20.30208,27.9218,27.9218,0,0,0,3.781,14.142q3.77944,6.57552,12.04077,11.34137,8.25678,4.7583,21.42293,7.41993,13.1601,2.66012,32.20539,2.66162,19.32323,0,33.32472-3.003,13.99846-3.00453,23.10268-8.29,9.09742-5.293,13.3021-12.58A31.273,31.273,0,0,0,1329.12477,427.95705Zm-75.89113-162.72483a64.83664,64.83664,0,0,0,22.40329-3.5015,43.92862,43.92862,0,0,0,15.82173-9.66162,39.7608,39.7608,0,0,0,9.52113-14.84136,54.38534,54.38534,0,0,0,3.22054-19.04227q0-21.27867-12.74167-33.74466-12.74545-12.45769-38.225-12.46222-25.48636,0-38.225,12.46222-12.74546,12.46221-12.74168,33.74466a53.46217,53.46217,0,0,0,3.22054,18.76281,41.06776,41.06776,0,0,0,9.52114,14.98185,42.78341,42.78341,0,0,0,15.96221,9.80059A65.10874,65.10874,0,0,0,1253.23364,265.23222Z"/><path class="cls-2" d="M503.02028,44.84132a39.43683,39.43683,0,0,1-3.64047,16.80209,45.672,45.672,0,0,1-23.80359,23.10268A43.34773,43.34773,0,0,1,458.2137,88.2476a41.65652,41.65652,0,0,1-16.94257-3.50151,44.845,44.845,0,0,1-13.86176-9.38065,45.31931,45.31931,0,0,1-9.3814-13.722,40.681,40.681,0,0,1-3.5-16.80209,43.357,43.357,0,0,1,3.5-17.36251,44.42536,44.42536,0,0,1,9.3814-14.00149,44.92794,44.92794,0,0,1,13.86176-9.38216,41.73023,41.73023,0,0,1,16.94257-3.5,43.42423,43.42423,0,0,1,17.36252,3.5,46.27629,46.27629,0,0,1,14.142,9.38216,45.24766,45.24766,0,0,1,9.66162,14.00149A42.01619,42.01619,0,0,1,503.02028,44.84132Zm-10.36176,83.7325V415.89363H423.48868V128.57382Z"/><path class="cls-2" d="M963.40176,123.53153a152.86276,152.86276,0,0,1,34.725,3.781,118.455,118.455,0,0,1,29.68273,11.06191h82.61317v25.76431q0,6.4441-3.36253,10.08005-3.358,3.6435-11.48035,5.04078l-25.76431,4.76132a89.41664,89.41664,0,0,1,4.34139,15.40179,91.80347,91.80347,0,0,1,1.54078,17.08154q0,21.28547-8.54077,38.506a86.3602,86.3602,0,0,1-23.52565,29.2643,109.08622,109.08622,0,0,1-35.5649,18.62233,145.85441,145.85441,0,0,1-44.66458,6.58005,160.78445,160.78445,0,0,1-31.64648-3.07854q-13.44106,8.18427-13.44107,18.33229,0,8.75075,7.98186,12.83986,7.98036,4.08761,21.003,5.77945a231.07243,231.07243,0,0,0,29.54376,1.69335q16.52263,0,33.88515,1.40332a266.0907,266.0907,0,0,1,33.88514,4.91842,99.30749,99.30749,0,0,1,29.54377,11.09666,59.27834,59.27834,0,0,1,21.003,20.65254q7.98034,13.06268,7.98186,33.571a79.25137,79.25137,0,0,1-9.38368,37.08755q-9.38517,17.97732-27.1631,32.03017-17.787,14.03925-43.54676,22.61628-25.76733,8.56494-58.80655,8.568-32.7643,0-56.84886-6.30211-24.08607-6.29908-39.90477-16.80058-15.82476-10.50451-23.66386-24.22352a56.793,56.793,0,0,1-7.84063-28.56491q0-20.1616,12.32174-33.88515,12.31946-13.7175,34.16309-21.84287a47.58146,47.58146,0,0,1-17.08079-15.68124q-6.44523-9.79983-6.44108-25.48486a42.68939,42.68939,0,0,1,2.24018-13.30058,53.134,53.134,0,0,1,6.861-13.58155,66.93579,66.93579,0,0,1,11.6231-12.74318,80.22226,80.22226,0,0,1,16.51961-10.78095q-21.84287-11.76207-34.30357-31.364Q849.42346,242.832,849.42535,216.5042q0-21.2764,8.54077-38.50447a86.22637,86.22637,0,0,1,23.80434-29.40479,108.57163,108.57163,0,0,1,36.12381-18.62233A153.63821,153.63821,0,0,1,963.40176,123.53153Zm75.89112,304.42552q0-8.57853-5.04229-14.006a33.04934,33.04934,0,0,0-13.722-8.438,99.78272,99.78272,0,0,0-20.30208-4.432,202.05284,202.05284,0,0,0-24.64347-1.43051H948.69785a114.40405,114.40405,0,0,1-26.74316-3.08006,62.58932,62.58932,0,0,0-18.90329,15.26282,31.34679,31.34679,0,0,0-7.139,20.30208,27.93542,27.93542,0,0,0,3.77945,14.142q3.77946,6.57552,12.04228,11.34137,8.2568,4.7583,21.42293,7.41993,13.1601,2.66012,32.20539,2.66162,19.32324,0,33.32321-3.003,13.99847-3.00453,23.10269-8.29,9.09967-5.293,13.30209-12.58A31.27436,31.27436,0,0,0,1039.29288,427.95705ZM963.40176,265.23222a64.82773,64.82773,0,0,0,22.40178-3.5015,43.92849,43.92849,0,0,0,15.82172-9.66162,39.74538,39.74538,0,0,0,9.52265-14.84136,54.38557,54.38557,0,0,0,3.22054-19.04227q0-21.27867-12.74319-33.74466-12.74318-12.45769-38.2235-12.46222-25.48636,0-38.22653,12.46222Q912.432,196.903,912.43507,218.18547a53.42761,53.42761,0,0,0,3.22054,18.76281,41.0643,41.0643,0,0,0,9.51962,14.98185,42.8019,42.8019,0,0,0,15.96372,9.80059A65.10275,65.10275,0,0,0,963.40176,265.23222Z"/><path class="cls-2" d="M1668.80552,415.89363H1637.721q-9.80663,0-15.4033-2.94109-5.60346-2.94108-8.40029-11.90179l-6.16162-20.44257a236.23811,236.23811,0,0,1-21.42293,17.222,130.07853,130.07853,0,0,1-21.70238,12.46222,110.75589,110.75589,0,0,1-23.80359,7.56041,143.15008,143.15008,0,0,1-28.00449,2.52114,110.05192,110.05192,0,0,1-33.60418-4.9154,72.34383,72.34383,0,0,1-26.4637-14.74922,66.90785,66.90785,0,0,1-17.222-24.44709q-6.16314-14.61025-6.16162-33.99693,0-16.29831,8.54228-32.17518,8.53774-15.87006,28.42292-28.65554,19.88063-12.784,52.92741-21.213,33.04074-8.42673,82.05123-8.432v-16.929q0-29.06189-12.18125-43.03317-12.18124-13.96674-35.42441-13.96825-16.8036,0-28.00449,3.91993a108.80671,108.80671,0,0,0-19.46221,8.82174q-8.26358,4.90332-15.26282,8.82174a30.957,30.957,0,0,1-15.40178,3.92144,20.01044,20.01044,0,0,1-12.04228-3.64048,28.63826,28.63826,0,0,1-8.12084-8.96222l-12.60119-22.12232q49.56564-45.367,119.57686-45.367,25.20313,0,44.94555,8.26132a95.55441,95.55441,0,0,1,33.46521,22.96371,98.31357,98.31357,0,0,1,20.86251,35.145,135.02949,135.02949,0,0,1,7.142,44.80507ZM1534.38578,372.7668a93.15947,93.15947,0,0,0,19.60269-1.93051,74.96884,74.96884,0,0,0,16.94257-5.78851,90.3174,90.3174,0,0,0,15.40179-9.50754,139.50826,139.50826,0,0,0,14.98185-13.37158V294.07508q-30.2424,0-50.54675,3.80664-20.30661,3.80664-32.62381,9.73262-12.32626,5.92521-17.503,13.82324a30.70432,30.70432,0,0,0-5.18126,17.19937q0,18.33984,10.78246,26.23259Q1517.01874,372.77058,1534.38578,372.7668Z"/><path class="cls-2" d="M1736.85375,415.89363V128.57382h40.60568q10.63821,0,14.84137,3.91843,4.2009,3.92673,5.6012,13.44257l4.2009,34.725q15.39876-26.60118,36.12532-42.006a76.03338,76.03338,0,0,1,46.48634-15.40179q21.27866,0,35.28544,9.8021l-8.96222,51.80657q-.84063,5.03927-3.64048,7.14047a12.32317,12.32317,0,0,1-7.56041,2.1012,47.08529,47.08529,0,0,1-11.48186-1.96072q-7.28473-1.95769-19.32323-1.96072-21.56643,0-36.9652,11.90179-15.40331,11.90709-26.04377,34.86551V415.89363Z"/><path class="cls-2" d="M1811.59986,58.77937H581.51729a24.39286,24.39286,0,0,1-24.39286-24.39286V0h1235.404a19.07143,19.07143,0,0,1,19.07143,19.07143Z"/></svg>