<svg id="Layer_1" data-name="Layer 1" xmlns="http://www.w3.org/2000/svg" viewBox="0 0 1920 516"><defs><style>.cls-1{fill:#00cca5;}.cls-2{fill:#f7f7f7;}</style></defs><title>Logo_niaggar</title><path class="cls-1" d="M50.59433,11.3567a19.66614,19.66614,0,0,1,6.0101,1.67839,20.23585,20.23585,0,0,1,5.17242,3.63427,59.01463,59.01463,0,0,1,5.59089,6.28833L279.55445,293.29413q-1.11969-9.7831-1.5374-19.15-.41959-9.36237-.41922-17.47161V10.93747h66.25594V415.18371H304.99505q-8.95069,0-14.81679-2.79582-5.871-2.79129-11.46226-10.06434L67.36774,133.106q.83919,8.95069,1.25842,17.75209.41847,8.80593.41922,16.0737V415.18371H2.78943V10.93747H42.20762A69.65788,69.65788,0,0,1,50.59433,11.3567Z"/><path class="cls-1" d="M797.857,415.18371H766.82551q-9.78876,0-15.3755-2.93606-5.59615-2.93607-8.3867-11.88148L736.913,379.9585a235.943,235.943,0,0,1-21.38636,17.19263,129.95279,129.95279,0,0,1-21.66609,12.44094,110.57994,110.57994,0,0,1-23.763,7.54751,142.897,142.897,0,0,1-27.95593,2.51684,109.86194,109.86194,0,0,1-33.54757-4.907,72.21424,72.21424,0,0,1-26.41854-14.72405A66.80256,66.80256,0,0,1,564.98288,375.62q-6.15261-14.58531-6.15035-33.93889a67.10708,67.10708,0,0,1,8.5262-32.12026q8.52431-15.843,28.3759-28.60663,19.84557-12.76215,52.83707-21.17675,32.9832-8.41234,81.91118-8.41762V234.45977q0-29.01228-12.16121-42.95971-12.16047-13.9429-35.364-13.94441-16.7738,0-27.95669,3.91324a108.59649,108.59649,0,0,0-19.429,8.80668q-8.24949,4.895-15.23677,8.80668a30.90831,30.90831,0,0,1-15.3755,3.91475,19.97406,19.97406,0,0,1-12.021-3.63426,28.57362,28.57362,0,0,1-8.10772-8.94693l-12.57968-22.08456q49.48217-45.28956,119.372-45.28956,25.16124,0,44.86958,8.24722a95.38446,95.38446,0,0,1,33.40809,22.92451,98.15647,98.15647,0,0,1,20.82689,35.085,134.81836,134.81836,0,0,1,7.129,44.72859Zm-134.18953-43.0532a93.00075,93.00075,0,0,0,19.56923-1.92722,74.85432,74.85432,0,0,0,16.91365-5.77863,90.16972,90.16972,0,0,0,15.37625-9.49131,139.27243,139.27243,0,0,0,14.95628-13.34876V293.57311q-30.193,0-50.46123,3.80014-20.27195,3.80015-32.56888,9.716-12.30409,5.9151-17.47236,13.79965a30.64518,30.64518,0,0,0-5.17167,17.17q0,18.30853,10.76331,26.18781Q646.33007,372.13428,663.66747,372.13051Z"/><path class="cls-1" d="M1254.37179,123.32067a152.58318,152.58318,0,0,1,34.66575,3.77451,118.264,118.264,0,0,1,29.63357,11.043h82.47064v25.72033q0,6.43311-3.35528,10.06284-3.35454,3.63729-11.46226,5.03218l-25.71882,4.75319a89.26219,89.26219,0,0,1,4.33246,15.3755,91.64607,91.64607,0,0,1,1.53816,17.05239q0,21.24913-8.5262,38.44025a86.20832,86.20832,0,0,1-23.484,29.21436,108.91546,108.91546,0,0,1-35.50419,18.59054,145.6155,145.6155,0,0,1-44.58985,6.56881,160.5052,160.5052,0,0,1-31.591-3.07329q-13.41813,8.17032-13.41813,18.301,0,8.7358,7.96673,12.81794,7.969,4.08063,20.96714,5.76958a230.71836,230.71836,0,0,0,29.49484,1.69047q16.49217,0,33.8258,1.40092a265.63511,265.63511,0,0,1,33.8273,4.91,99.10607,99.10607,0,0,1,29.49333,11.07772,59.16463,59.16463,0,0,1,20.96714,20.61728q7.969,13.04037,7.96824,33.51364a79.1143,79.1143,0,0,1-9.36615,37.02425q-9.36917,17.94663-27.11673,31.97549-17.75662,14.01528-43.47243,22.57767-25.72335,8.55033-58.70769,8.55334-32.70837,0-56.75031-6.29135-24.0472-6.28833-39.83816-16.7719-15.79774-10.48658-23.62272-24.18218a56.70464,56.70464,0,0,1-7.828-28.51615q0-20.12718,12.3007-33.8273,12.29844-13.69408,34.10629-21.80559a47.50868,47.50868,0,0,1-17.05239-15.65447q-6.43536-9.7831-6.43009-25.44136a42.59458,42.59458,0,0,1,2.23636-13.27788,53.04365,53.04365,0,0,1,6.8493-13.55836,66.84229,66.84229,0,0,1,11.6025-12.72144,80.09782,80.09782,0,0,1,16.49293-10.76254q-21.80559-11.742-34.245-31.31047-12.44321-19.56621-12.44095-45.849,0-21.24009,8.5262-38.43875a86.08592,86.08592,0,0,1,23.763-29.3546,108.394,108.394,0,0,1,36.06366-18.59054A153.36578,153.36578,0,0,1,1254.37179,123.32067Zm75.76158,303.90588q0-8.5639-5.03217-13.98212a33.01264,33.01264,0,0,0-13.69862-8.42365,99.6056,99.6056,0,0,0-20.26893-4.42445,201.69043,201.69043,0,0,0-24.6014-1.42807h-26.83776a114.18989,114.18989,0,0,1-26.69751-3.0748,62.46417,62.46417,0,0,0-18.871,15.23677,31.28636,31.28636,0,0,0-7.12828,20.26742,27.8741,27.8741,0,0,0,3.7745,14.11784q3.773,6.56429,12.02022,11.322,8.24269,4.75019,21.38636,7.40726,13.13763,2.65559,32.15041,2.65709,19.29025,0,33.26784-2.99789,13.97457-2.9994,23.06325-8.27587,9.08189-5.284,13.27939-12.55857A31.21956,31.21956,0,0,0,1330.13337,427.22655Zm-75.76158-162.44707a64.72581,64.72581,0,0,0,22.36505-3.49553,43.85371,43.85371,0,0,0,15.79472-9.64512,39.6931,39.6931,0,0,0,9.50488-14.816,54.29269,54.29269,0,0,0,3.215-19.00977q0-21.24234-12.71992-33.68706-12.72369-12.43641-38.15977-12.44094-25.44286,0-38.15977,12.44094-12.72369,12.441-12.71992,33.68706a53.37072,53.37072,0,0,0,3.215,18.73079,40.99751,40.99751,0,0,0,9.50488,14.95627,42.71033,42.71033,0,0,0,15.935,9.78386A64.99751,64.99751,0,0,0,1254.37179,264.77948Z"/><path class="cls-2" d="M505.439,44.76478a39.3694,39.3694,0,0,1-3.63427,16.77341,45.594,45.594,0,0,1-23.763,23.06325A43.27386,43.27386,0,0,1,460.70892,88.097a41.58555,41.58555,0,0,1-16.91365-3.49552,44.76863,44.76863,0,0,1-13.8381-9.36464,45.242,45.242,0,0,1-9.36539-13.69861,40.61144,40.61144,0,0,1-3.494-16.77341,43.28286,43.28286,0,0,1,3.494-17.33288,44.34961,44.34961,0,0,1,9.36539-13.97758,44.85125,44.85125,0,0,1,13.8381-9.36615,41.659,41.659,0,0,1,16.91365-3.494,43.35,43.35,0,0,1,17.33287,3.494,46.19742,46.19742,0,0,1,14.11784,9.36615,45.17046,45.17046,0,0,1,9.64512,13.97758A41.9444,41.9444,0,0,1,505.439,44.76478Zm-10.34408,83.58957V415.18371H426.04317V128.35435Z"/><path class="cls-2" d="M965.03464,123.32067a152.60214,152.60214,0,0,1,34.66574,3.77451,118.25293,118.25293,0,0,1,29.63207,11.043h82.47215v25.72033q0,6.43311-3.35679,10.06284-3.35227,3.63729-11.46075,5.03218l-25.72033,4.75319a89.26506,89.26506,0,0,1,4.334,15.3755,91.64608,91.64608,0,0,1,1.53815,17.05239q0,21.24913-8.52619,38.44025a86.21262,86.21262,0,0,1-23.48549,29.21436,108.90016,108.90016,0,0,1-35.50419,18.59054,145.60566,145.60566,0,0,1-44.58834,6.56881,160.50918,160.50918,0,0,1-31.59246-3.07329q-13.41813,8.17032-13.41813,18.301,0,8.7358,7.96824,12.81794,7.96672,4.08063,20.96714,5.76958a230.67672,230.67672,0,0,0,29.49333,1.69047q16.49444,0,33.8273,1.40092a265.635,265.635,0,0,1,33.82731,4.91A99.13751,99.13751,0,0,1,1075.6007,361.843a59.17688,59.17688,0,0,1,20.96714,20.61728q7.96672,13.04037,7.96823,33.51364a79.11617,79.11617,0,0,1-9.36765,37.02425q-9.36917,17.94663-27.11673,31.97549-17.75662,14.01528-43.47243,22.57767-25.72335,8.55033-58.70618,8.55334-32.70837,0-56.75182-6.29135-24.045-6.28833-39.83665-16.7719-15.79774-10.48658-23.62347-24.18218a56.696,56.696,0,0,1-7.82724-28.51615q0-20.12718,12.3007-33.8273,12.29844-13.69408,34.10477-21.80559a47.50029,47.50029,0,0,1-17.05163-15.65447q-6.43424-9.7831-6.43008-25.44136a42.61639,42.61639,0,0,1,2.23635-13.27788,53.04337,53.04337,0,0,1,6.84931-13.55836,66.82205,66.82205,0,0,1,11.60325-12.72144A80.08561,80.08561,0,0,1,897.938,293.29413q-21.80559-11.742-34.245-31.31047-12.44208-19.56621-12.44019-45.849,0-21.24009,8.52619-38.43875a86.07925,86.07925,0,0,1,23.76371-29.3546,108.38634,108.38634,0,0,1,36.06215-18.59054A153.376,153.376,0,0,1,965.03464,123.32067Zm75.76158,303.90588q0-8.5639-5.03369-13.98212a32.993,32.993,0,0,0-13.69861-8.42365,99.6124,99.6124,0,0,0-20.26743-4.42445,201.70823,201.70823,0,0,0-24.6014-1.42807H950.35583a114.20858,114.20858,0,0,1-26.69751-3.0748,62.48262,62.48262,0,0,0-18.871,15.23677,31.29324,31.29324,0,0,0-7.12678,20.26742,27.88773,27.88773,0,0,0,3.773,14.11784q3.773,6.56429,12.02173,11.322,8.24268,4.75019,21.38636,7.40726,13.13763,2.65559,32.15041,2.65709,19.29025,0,33.26633-2.99789,13.97457-2.9994,23.06325-8.27587,9.08415-5.284,13.27939-12.55857A31.22092,31.22092,0,0,0,1040.79622,427.22655ZM965.03464,264.77948a64.71687,64.71687,0,0,0,22.36354-3.49553,43.85371,43.85371,0,0,0,15.79472-9.64512,39.67791,39.67791,0,0,0,9.50639-14.816,54.29269,54.29269,0,0,0,3.215-19.00977q0-21.24234-12.72143-33.68706-12.72144-12.43641-38.15826-12.44094-25.44286,0-38.16128,12.44094-12.72142,12.441-12.71842,33.68706A53.33639,53.33639,0,0,0,917.37,236.54382a40.99407,40.99407,0,0,0,9.50337,14.95627,42.72882,42.72882,0,0,0,15.93647,9.78386A64.99138,64.99138,0,0,0,965.03464,264.77948Z"/><path class="cls-2" d="M1669.2343,415.18371h-31.03149q-9.78988,0-15.377-2.93606-5.5939-2.93607-8.386-11.88148l-6.15111-20.40767a235.83788,235.83788,0,0,1-21.38636,17.19263,129.85562,129.85562,0,0,1-21.66534,12.44094,110.56635,110.56635,0,0,1-23.763,7.54751,142.905,142.905,0,0,1-27.95669,2.51684,109.864,109.864,0,0,1-33.54682-4.907,72.22029,72.22029,0,0,1-26.41853-14.72405A66.7936,66.7936,0,0,1,1436.35943,375.62q-6.15261-14.58531-6.15111-33.93889a67.10072,67.10072,0,0,1,8.5277-32.12026q8.52318-15.843,28.37441-28.60663,19.8467-12.76215,52.83706-21.17675,32.98434-8.41234,81.91118-8.41762V234.45977q0-29.01228-12.16046-42.95971-12.16046-13.9429-35.36395-13.94441-16.77492,0-27.95668,3.91324a108.62118,108.62118,0,0,0-19.429,8.80668q-8.24948,4.895-15.23676,8.80668a30.90426,30.90426,0,0,1-15.3755,3.91475,19.97631,19.97631,0,0,1-12.02172-3.63426,28.58945,28.58945,0,0,1-8.107-8.94693L1443.628,168.33125q49.481-45.28956,119.37275-45.28956,25.16012,0,44.86883,8.24722a95.39127,95.39127,0,0,1,33.40808,22.92451,98.14568,98.14568,0,0,1,20.8269,35.085,134.799,134.799,0,0,1,7.12979,44.72859ZM1535.044,372.13051a93.00068,93.00068,0,0,0,19.56923-1.92722,74.84133,74.84133,0,0,0,16.91365-5.77863,90.16348,90.16348,0,0,0,15.3755-9.49131,139.27147,139.27147,0,0,0,14.95628-13.34876V293.57311q-30.19079,0-50.46047,3.80014-20.272,3.80015-32.56813,9.716-12.30522,5.9151-17.47312,13.79965a30.6519,30.6519,0,0,0-5.17242,17.17q0,18.30853,10.76406,26.18781Q1517.70662,372.13428,1535.044,372.13051Z"/><path class="cls-2" d="M1737.16638,415.18371V128.35435h40.53636q10.62,0,14.816,3.91174,4.19373,3.92,5.59164,13.41963l4.19372,34.66575q15.3725-26.55576,36.06366-41.93428a75.90367,75.90367,0,0,1,46.407-15.3755q21.24234,0,35.22521,9.78537l-8.94692,51.71814q-.8392,5.03065-3.63427,7.12828a12.30213,12.30213,0,0,1-7.5475,2.09762,47.00526,47.00526,0,0,1-11.46226-1.95738q-7.2723-1.95435-19.29025-1.95737-21.52962,0-36.9021,11.88148-15.377,11.88675-25.99931,34.806V415.18371Z"/><path class="cls-2" d="M797.25531,515.75781H26.39286A24.39285,24.39285,0,0,1,2,491.365V457.07878H778.18388a19.07143,19.07143,0,0,1,19.07143,19.07143Z"/><path class="cls-2" d="M1811.7849,58.679H583.84367a24.39285,24.39285,0,0,1-24.39286-24.39285V0H1792.71347a19.07143,19.07143,0,0,1,19.07143,19.07143Z"/><path class="cls-2" d="M1786.49918,515.75781h-356.128v-34.3576a24.32142,24.32142,0,0,1,24.32143-24.32143H1811.7849V490.4721A25.28571,25.28571,0,0,1,1786.49918,515.75781Z"/></svg>